# xmcd CD database file
# Copyright (C) 1996 Ti Kan
#
# Track frame offsets:
#	150
#	16125
#	30472
#	42780
#	51830
#	63655
#	78110
#	92107
#	106632
#	119110
#	131917
#	150720
#	163117
#	178700
#	191827
#	202830
#	219197
#	235267
#	247677
#	258315
#	274497
#
# Disc length: 3835 seconds
#
# Revision: 1
# Processed by: cddbd v1.4b41PL1 Copyright (c) Steve Scherf et al.
# Submitted via: EasyCD 2.21 - (C) 1996 Greg Leichner
#
DISCID=1d0ef915
DTITLE=Count Basie and The Mills Brothers - The Board of Directors
DYEAR=1900
DGENRE=
TTITLE0=Up A Lazy River
TTITLE1=I May Be Wrong But I Think You're Wonderful
TTITLE2=Release Me
TTITLE3=I Want To Be Happy
TTITLE4=Down-Down-Down
TTITLE5=The Whiffenpoof Song
TTITLE6=I Dig Rock And Roll Music
TTITLE7=Tiny Bubbles
TTITLE8=December
TTITLE9=Let Me Dream
TTITLE10=April In Paris
TTITLE11=Gentle On My Mind
TTITLE12=Cherry
TTITLE13=You Never Miss The Water Till The Well Runs Dry
TTITLE14=Glow Worm
TTITLE15=Sent For You Yesterday And Here You Come Today
TTITLE16=Sunny
TTITLE17=I'll Be Around
TTITLE18=Cielito Lindo
TTITLE19=Blue And Sentimental
TTITLE20=Every Day
EXTD=
EXTT0=
EXTT1=
EXTT2=
EXTT3=
EXTT4=
EXTT5=
EXTT6=
EXTT7=
EXTT8=
EXTT9=
EXTT10=
EXTT11=
EXTT12=
EXTT13=
EXTT14=
EXTT15=
EXTT16=
EXTT17=
EXTT18=
EXTT19=
EXTT20=
PLAYORDER=
